# AST/ASF file generated using VICON BodyLanguage
# -----------------------------------------------
:version 1.10
:name VICON
:units
  mass 1.0
  length 0.45
  angle deg
:documentation
   .ast/.asf automatically generated from VICON data using
   VICON BodyBuilder and BodyLanguage model FoxedUp or BRILLIANT.MOD
:root
   order TX TY TZ RX RY RZ
   axis XYZ
   position 0 0 0  
   orientation 0 0 0 
:bonedata
  begin
     id 1 
     name lhipjoint
     direction 0.54267 -0.795011 0.271047 
     length 2.39899 
     axis 0 0 0  XYZ
  end
  begin
     id 2 
     name lfemur
     direction 0.34202 -0.939693 0  
     length 7.49701  
     axis 0 0 20  XYZ
    dof rx ry rz
    limits (-160.0 20.0)
           (-70.0 70.0)
           (-60.0 70.0)
  end
  begin
     id 3 
     name ltibia
     direction 0.34202 -0.939693 0   
     length 8.1668   
     axis 0 0 20   XYZ
    dof rx
    limits (-10.0 170.0)
  end
  begin
     id 4 
     name lfoot
     direction 0.0736283 -0.202292 0.976554   
     length 2.13544   
     axis -90 7.62852e-016 20   XYZ
    dof rx rz
    limits (-45.0 90.0)
           (-70.0 20.0)
  end
  begin
     id 5 
     name ltoes
     direction 1.53557e-011 -4.22024e-011 1   
     length 1.07411   
     axis -90 7.62852e-016 20   XYZ
    dof rx
    limits (-90.0 20.0)
  end
  begin
     id 6 
     name rhipjoint
     direction -0.538061 -0.797813 0.272002   
     length 2.39057  
     axis 0 0 0  XYZ 
  end
  begin
     id 7 
     name rfemur
     direction -0.34202 -0.939693 0   
     length 7.50152   
     axis 0 0 -20   XYZ
    dof rx ry rz
    limits (-160.0 20.0)
           (-70.0 70.0)
           (-70.0 60.0)
  end
  begin
     id 8 
     name rtibia
     direction -0.34202 -0.939693 0   
     length 8.05793   
     axis 0 0 -20   XYZ
    dof rx
    limits (-10.0 170.0)
 end
 begin
     id 9 
     name rfoot
     direction -0.0765195 -0.210236 0.974652   
     length 2.28698  
     axis -90 -7.62852e-016 -20   XYZ
    dof rx rz
    limits (-45.0 90.0)
           (-20.0 70.0)
  end
  begin
     id 10 
     name rtoes
     direction -1.53542e-011 -4.21847e-011 1   
     length 1.14762   
     axis -90 -7.62852e-016 -20   XYZ
    dof rx
    limits (-90.0 20.0)
  end
  begin
     id 11 
     name lowerback
     direction -0.0217239 0.996592 -0.0795765   
     length 2.08176   
     axis 0 0 0   XYZ
    dof rx ry rz
    limits (-20.0 45.0)
           (-30.0 30.0)
           (-30.0 30.0)
  end
  begin
     id 12 
     name upperback
     direction -0.00563773 0.999651 -0.0258155   
     length 2.08898   
     axis 0 0 0   XYZ
    dof rx ry rz
    limits (-20.0 45.0)
           (-30.0 30.0)
           (-30.0 30.0)
  end
  begin
     id 13 
     name thorax
     direction 0.0032706 0.999923 0.0119599   
     length 2.0968   
     axis 0 0 0   XYZ
    dof rx ry rz
    limits (-20.0 45.0)
           (-30.0 30.0)
           (-30.0 30.0)
  end
  begin
     id 14 
     name lowerneck
     direction -0.0285886 0.99568 0.0883427   
     length 1.81272   
     axis 0 0 0   XYZ
    dof rx ry rz
    limits (-20.0 45.0)
           (-30.0 30.0)
           (-30.0 30.0)
  end
  begin
     id 15 
     name upperneck
     direction 0.0807535 0.97985 -0.18268   
     length 1.82518   
     axis 0 0 0   XYZ
    dof rx ry rz
    limits (-20.0 45.0)
           (-30.0 30.0)
           (-30.0 30.0)
  end
  begin
     id 16
     name head
     direction 0.0236605 0.997053 -0.0729767  
     length 1.84443  
     axis 0 0 0   XYZ
    dof rx ry rz
    limits (-20.0 45.0)
           (-30.0 30.0)
           (-30.0 30.0)
  end
  begin
     id 17 
     name lclavicle
     direction 0.918986 0.39378 -0.0200683  
     length 3.27822  
     axis 0 0 0   XYZ
    dof ry rz
    limits (-20.0 10.0)
           (0.0 20.0)
  end
  begin
     id 18 
     name lhumerus
     direction 1 -4.4897e-011 2.09544e-027   
     length 5.5568   
     axis 180 -30 -90   XYZ
    dof rx ry rz
    limits (-60.0 90.0)
           (-90.0 90.0)
           (-90.0 90.0)
  end
  begin
     id 19
     name lradius
     direction 1 -4.48957e-011 -1.27696e-026   
     length 3.63979   
     axis 180 -30 -90   XYZ
    dof rx
    limits (-10.0 170.0)
  end
  begin
     id 20
     name lwrist
     direction 1 -4.49001e-011 -1.49001e-026   
     length 1.8199   
     axis 9.0955e-015 90 90   XYZ
    dof ry
    limits (-180.0 0.0)
 end
  begin
     id 21 
     name lhand
     direction 1 -4.48709e-011 -2.9758e-026   
     length 0.569419   
     axis 1.90115e-014 90 90   XYZ
    dof rx rz
    limits (-90.0 90.0)
           (-45.0 45.0)
  end
  begin
     id 22 
     name lfingers
     direction 1 -4.49175e-011 -5.96505e-026   
     length 0.45908   
     axis 3.80223e-014 90 90   XYZ
    dof rx
    limits (0.0 90.0)
  end
  begin
     id 23
     name lthumb
     direction 0.707107 -6.34864e-011 0.707107   
     length 0.65915   
     axis -90 45 -3.84942e-014   XYZ
    dof rx rz
    limits (-45.0 45.0)
           (-45.0 45.0)
  end
  begin
     id 24 
     name rclavicle
     direction -0.911913 0.396426 -0.106115   
     length 3.46301  
     axis 0 0 0   XYZ 
    dof ry rz
    limits (-10.0 20.0)
           (-20.0 0.0)
  end
  begin
     id 25 
     name rhumerus
     direction -1 -4.48965e-011 7.78516e-028  
     length 5.34339   
     axis 180 30 90   XYZ
    dof rx ry rz
    limits (-90.0 60.0)
           (-90.0 90.0)
           (-90.0 90.0)
  end
  begin
     id 26 
     name rradius
     direction -1 -4.48948e-011 -5.79823e-027   
     length 3.65101   
     axis 180 30 90   XYZ
    dof rx
    limits (-10.0 170.0)
  end
  begin
     id 27 
     name rwrist
     direction -1 -4.48995e-011 -1.48996e-026   
     length 1.8255   
     axis 9.0955e-015 -90 -90   XYZ
    dof ry
    limits (-180.0 0.0)
  end
  begin
     id 28
     name rhand
     direction -1 -4.48957e-011 -2.97937e-026   
     length 0.694249   
     axis 1.90115e-014 -90 -90   XYZ
    dof rx rz
    limits (-90.0 90.0)
           (-45.0 45.0)
  end
  begin
     id 29
     name rfingers
     direction -1 -4.4898e-011 -5.95943e-026   
     length 0.559721   
     axis 3.80223e-014 -90 -90   XYZ
    dof rx
    limits (0.0 90.0)
  end
  begin
     id 30
     name rthumb
     direction -0.707107 -6.34969e-011 0.707107   
     length 0.803651   
     axis -90 -45 3.84942e-014   XYZ
    dof rx rz
    limits (-45.0 45.0)
           (-45.0 45.0)
  end
:hierarchy
  begin
    root lhipjoint rhipjoint lowerback
    lhipjoint lfemur
    lfemur ltibia
    ltibia lfoot
    lfoot ltoes
    rhipjoint rfemur
    rfemur rtibia
    rtibia rfoot
    rfoot rtoes
    lowerback upperback
    upperback thorax
    thorax lowerneck lclavicle rclavicle
    lowerneck upperneck
    upperneck head
    lclavicle lhumerus
    lhumerus lradius
    lradius lwrist
    lwrist lhand lthumb
    lhand lfingers
    rclavicle rhumerus
    rhumerus rradius
    rradius rwrist
    rwrist rhand rthumb
    rhand rfingers
  end

#!OML:ASF H:\Terrain\Walking\May29\JustinRory\rory.ASF
:FULLY-SPECIFIED
:DEGREES
961
root 6.25807 18.6397 8.89384 -177.396 2.384 -181.278
lowerback 4.60388 0.555455 -2.51928
upperback 1.74774 0.707357 -0.54164
thorax -0.807124 0.383741 0.819511
lowerneck -6.82081 -3.03165 -3.80885
upperneck 13.2908 -3.64351 2.16715
head 5.23171 -1.70642 1.07015
rclavicle 4.84538e-015 -4.87022e-015
rhumerus -27.5423 31.3003 -41.3018
rradius 136.08
rwrist -43.7754
rhand 6.22735 35.6434
rfingers 7.12502
rthumb 31.5399 -351.654
lclavicle 4.84538e-015 -4.87022e-015
lhumerus -31.6883 -17.366 48.3175
lradius 143.334
lwrist 53.0795
lhand 16.4261 25.4575
lfingers 7.12502
lthumb 41.1923 50.3124
rfemur -9.41738 6.62145 14.1957
rtibia 24.7028
rfoot -11.1111 -14.8217
rtoes 7.59966
lfemur -7.44004 -1.013 -19.5491
ltibia 24.2239
lfoot -17.059 7.6325
ltoes -9.49966
962
root 6.25672 18.64 8.89527 -177.287 2.46985 -181.139
lowerback 4.62827 0.649011 -2.27558
upperback 1.68408 0.836817 -0.559664
thorax -0.88706 0.448692 0.656841
lowerneck -6.50303 -2.97948 -3.76367
upperneck 12.8491 -3.60825 2.23803
head 5.0401 -1.69005 1.09258
rclavicle -1.16786e-015 -7.05686e-015
rhumerus -29.0808 30.0162 -42.7905
rradius 136.908
rwrist -43.5521
rhand 6.21241 35.3764
rfingers 7.12502
rthumb 31.5257 -351.924
lclavicle -1.16786e-015 -7.05686e-015
lhumerus -32.3699 -15.1621 49.867
lradius 143.602
lwrist 53.1436
lhand 17.3651 25.1376
lfingers 7.12502
lthumb 42.0731 49.7032
rfemur -9.38254 6.76204 14.3484
rtibia 24.516
rfoot -10.7576 -14.8344
rtoes 6.80335
lfemur -7.60835 -0.672824 -19.3414
ltibia 24.3495
lfoot -16.9679 7.29599
ltoes -9.0297
963
root 6.25432 18.6377 8.89264 -177.17 2.43335 -181.035
lowerback 4.58502 0.715742 -2.0581
upperback 1.62137 0.931214 -0.588286
thorax -0.926425 0.495368 0.500649
lowerneck -6.22195 -2.96831 -3.63015
upperneck 12.4767 -3.62126 2.21089
head 4.87482 -1.69812 1.06646
rclavicle -2.48481e-016 4.57205e-015
rhumerus -30.8764 28.8232 -44.7187
rradius 137.884
rwrist -43.4393
rhand 6.38696 34.4774
rfingers 7.12502
rthumb 31.692 -352.79
lclavicle -2.48481e-016 4.57205e-015
lhumerus -33.1539 -12.9953 51.6445
lradius 144.193
lwrist 53.2836
lhand 18.4793 26.5432
lfingers 7.12502
lthumb 43.1159 50.748
rfemur -9.31057 6.79263 14.4655
rtibia 24.2833
rfoot -10.3128 -14.847
rtoes 6.15186
lfemur -7.84712 -0.569794 -19.1988
ltibia 24.5911
lfoot -17.1852 7.04123
ltoes -8.08465
964
root 6.25198 18.633 8.88921 -177.031 2.31614 -180.961
lowerback 4.40408 0.775734 -1.95386
upperback 1.68296 1.02232 -0.582546
thorax -0.762861 0.539731 0.446649
lowerneck -6.29622 -2.67006 -3.40092
upperneck 12.2226 -3.78078 2.05296
head 4.80281 -1.99793 0.952249
rclavicle -2.31087e-015 2.68359e-015
rhumerus -32.5776 27.1693 -46.7014
rradius 138.774
rwrist -43.3508
rhand 7.2581 34.3989
rfingers 7.12502
rthumb 32.5213 -352.701
lclavicle -2.31087e-015 2.68359e-015
lhumerus -34.2361 -11.0112 53.9445
lradius 144.954
lwrist 52.9379
lhand 19.86 27.4313
lfingers 7.12502
lthumb 44.4047 51.1616
rfemur -9.30098 6.77828 14.5284
rtibia 24.1005
rfoot -10.3578 -15.038
rtoes 5.82809
lfemur -8.12021 -0.787198 -19.1355
ltibia 24.8623
lfoot -17.421 7.07438
ltoes -8.0511
965
root 6.24997 18.6283 8.89196 -176.839 2.13983 -180.936
lowerback 4.20133 0.826872 -1.94256
upperback 1.80897 1.10265 -0.580194
thorax -0.52201 0.579173 0.44333
lowerneck -6.56485 -2.77101 -3.04855
upperneck 11.9039 -3.87818 1.80605
head 4.74133 -2.02927 0.811882
rclavicle 9.93923e-017 -1.98785e-015
rhumerus -34.1851 25.3646 -48.9483
rradius 139.592
rwrist -43.9195
rhand 7.59865 35.0119
rfingers 7.12502
rthumb 32.8453 -352.021
lclavicle 9.93923e-017 -1.98785e-015
lhumerus -35.2962 -8.96281 56.3733
lradius 145.592
lwrist 52.6528
lhand 22.1853 27.4037
lfingers 7.12502
lthumb 46.5652 50.2591
rfemur -9.42779 6.84813 14.5146
rtibia 24.0206
rfoot -10.5437 -15.3073
rtoes 5.82804
lfemur -8.47578 -1.10406 -19.1213
ltibia 25.0804
lfoot -17.5067 7.14969
ltoes -8.33487
966
root 6.25185 18.6233 8.90401 -176.645 1.84358 -181.009
lowerback 4.27855 0.814909 -1.96964
upperback 1.8081 1.08618 -0.694796
thorax -0.563822 0.573025 0.340536
lowerneck -6.71211 -2.83543 -2.59097
upperneck 11.5422 -3.96017 1.66004
head 4.64501 -2.04601 0.688905
rclavicle 4.19933e-015 1.19271e-015
rhumerus -35.9912 23.8827 -51.901
rradius 140.328
rwrist -44.0854
rhand 7.58379 34.8956
rfingers 7.12502
rthumb 32.8312 -352.14
lclavicle 4.19933e-015 1.19271e-015
lhumerus -36.5004 -6.94826 58.631
lradius 146.325
lwrist 52.9277
lhand 23.94 28.4025
lfingers 7.12502
lthumb 48.1862 50.5279
rfemur -9.62195 6.98464 14.4229
rtibia 24.0254
rfoot -10.5797 -15.5825
rtoes 7.20264
lfemur -8.83727 -1.30489 -19.1644
ltibia 25.1653
lfoot -17.4725 6.98305
ltoes -8.1102
967
root 6.25375 18.6187 8.91026 -176.613 1.74022 -181.122
lowerback 4.43804 0.809425 -2.14918
upperback 1.92782 1.07958 -0.75775
thorax -0.531431 0.572785 0.375413
lowerneck -7.22396 -2.83776 -2.24525
upperneck 11.3622 -3.94407 1.53961
head 4.66613 -2.01593 0.591107
rclavicle -1.75427e-014 -2.78299e-015
rhumerus -37.3346 22.1758 -54.7569
rradius 140.743
rwrist -43.4303
rhand 9.09443 34.6989
rfingers 7.12502
rthumb 34.2669 -352.025
lclavicle -1.75427e-014 -2.78299e-015
lhumerus -37.6339 -4.78514 61.0109
lradius 146.979
lwrist 53.0056
lhand 24.4662 29.3633
lfingers 7.12502
lthumb 48.6707 51.257
rfemur -9.71203 7.1412 14.2955
rtibia 24.1349
rfoot -10.6089 -15.7039
rtoes 8.09808
lfemur -8.93671 -1.36023 -19.2682
ltibia 25.2082
lfoot -17.5449 6.89612
ltoes -8.23934
968
root 6.2433 18.6128 8.89142 -176.755 2.04133 -181.204
lowerback 4.26795 0.850571 -2.31505
upperback 2.31356 1.1611 -0.710583
thorax -0.0459739 0.61404 0.519772
lowerneck -8.175 -2.80016 -2.35919
upperneck 11.3838 -3.83989 1.64684
head 4.83494 -1.94464 0.635457
rclavicle 8.22472e-015 -7.15625e-015
rhumerus -38.0145 20.3693 -57.204
rradius 141.046
rwrist -43.0224
rhand 10.5694 33.8586
rfingers 7.12502
rthumb 35.6662 -352.539
lclavicle 8.22472e-015 -7.15625e-015
lhumerus -38.5439 -2.17593 63.4068
lradius 147.361
lwrist 53.2109
lhand 25.5102 29.8001
lfingers 7.12502
lthumb 49.6292 51.2154
rfemur -9.6599 7.20044 14.1445
rtibia 24.3019
rfoot -10.6845 -15.462
rtoes 7.55309
lfemur -8.70222 -1.17464 -19.4674
ltibia 25.2265
lfoot -17.7071 7.2977
ltoes -10.5694
969
root 6.24279 18.6029 8.9233 -176.515 0.794506 -181.333
lowerback 4.46866 0.363728 -2.40589
upperback 2.35394 0.509246 -0.667205
thorax -0.10017 0.289834 0.641772
lowerneck -8.61091 -2.76951 -2.64896
upperneck 11.2039 -3.76669 1.98716
head 4.86332 -1.88822 0.787911
rclavicle -8.57259e-015 0
rhumerus -38.805 18.7559 -59.8008
rradius 141.273
rwrist -43.0692
rhand 11.1581 33.2156
rfingers 7.12502
rthumb 36.2239 -353.046
lclavicle -8.57259e-015 0
lhumerus -39.4334 0.423806 65.4689
lradius 147.534
lwrist 53.8896
lhand 26.5019 30.7567
lfingers 7.12502
lthumb 50.5364 51.6931
rfemur -9.91835 6.28889 14.0607
rtibia 24.5694
rfoot -10.8757 -15.7281
rtoes 8.1671
lfemur -9.26255 -1.6785 -19.5091
ltibia 25.26
lfoot -17.1563 6.88237
ltoes -11.7056
